<?xml version="1.0" encoding="utf-8"?>
<!-- Generator: Adobe Illustrator 16.0.0, SVG Export Plug-In . SVG Version: 6.00 Build 0)  -->
<!DOCTYPE svg PUBLIC "-//W3C//DTD SVG 1.1//EN" "http://www.w3.org/Graphics/SVG/1.1/DTD/svg11.dtd">
<svg version="1.1" id="Layer_1" xmlns="http://www.w3.org/2000/svg" xmlns:xlink="http://www.w3.org/1999/xlink" x="0px" y="0px"
	 width="500px" height="250px" viewBox="0 0 500 250" enable-background="new 0 0 500 250" xml:space="preserve">
<g>
	<polygon fill="#DCA96E" points="423.348,157.48 456.209,228.508 459.912,228.496 431.497,152.867 	"/>
	<polygon fill="#DCA96E" points="389.357,158.998 356.496,228.508 352.793,228.496 381.208,157.42 	"/>
	
		<linearGradient id="SVGID_1_" gradientUnits="userSpaceOnUse" x1="288.6816" y1="211.4336" x2="317.5684" y2="211.4336" gradientTransform="matrix(0.8061 0.5918 -0.5918 0.8061 169.2953 -137.3262)">
		<stop  offset="0" style="stop-color:#353B45"/>
		<stop  offset="0.0837" style="stop-color:#303743"/>
		<stop  offset="0.3767" style="stop-color:#212B3D"/>
		<stop  offset="0.6785" style="stop-color:#172439"/>
		<stop  offset="1" style="stop-color:#142138"/>
	</linearGradient>
	<path fill="url(#SVGID_1_)" d="M305.86,213.285l-16.703,14.617l-19.69-13.859c0,0,6.702-2.246,18.193,0.813l11.76-9.881
		L305.86,213.285z"/>
	<path fill="#2F68B2" d="M402.547,132.666c0,0-36.915,18.922-49.957,24.583s-57.412,50.094-57.412,50.094s5.681,11.566,8.521,9.535
		c25.053-17.912,48.133-33.939,62.965-39.531c29.369-11.074,37.555-13.482,45.077-22.199
		C411.741,155.146,407.329,144.667,402.547,132.666z"/>
	<g>
		<linearGradient id="SVGID_2_" gradientUnits="userSpaceOnUse" x1="316.1436" y1="215.4551" x2="345.0313" y2="215.4551">
			<stop  offset="0" style="stop-color:#353B45"/>
			<stop  offset="0.0837" style="stop-color:#303743"/>
			<stop  offset="0.3767" style="stop-color:#212B3D"/>
			<stop  offset="0.6785" style="stop-color:#172439"/>
			<stop  offset="1" style="stop-color:#142138"/>
		</linearGradient>
		<path fill="url(#SVGID_2_)" d="M345.031,205.826l-4.814,21.666l-24.073,0.48c0,0,4.072-5.777,15.146-10.111l3.631-14.924
			L345.031,205.826z"/>
		<path fill="#3D7CBF" d="M403.442,127.862c0,0-34.338,3.704-46.855,10.444c-12.519,6.741-22.482,68.555-22.482,68.555
			s9.723,5.279,10.927,2c9.71-26.441,20.482-47.15,20.482-47.15c12.338-2.254,40.915,11.654,61.569-8.691
			C427.083,153.02,409.221,139.417,403.442,127.862z"/>
	</g>
	<g>
		<path fill="#FBC4AE" d="M462.612,86.124c0,0-2.479,4.105-4.043,9.248l-14.124-1.305c0,0,7.293-11.049,6.734-17.75L462.612,86.124z
			"/>
		<g>
			<path fill="#FBC4AE" d="M459.575,63.295c-0.802-0.212-3.82-1.044-4.431-0.795c-0.848,0.346,0.138,1.456-0.459,2.134
				c-0.965,1.098-2.896,1.121-4.142,1.788c-1.509,0.808-2.659,1.87-3.349,3.083c-1.15,2.021,3.038,6.532,3.694,9.913
				c1.371,7.072,10.311,8.118,17.573,5.953c2.596-0.774,4.984-3.109,6.4-5.374c1.664-2.662,0.726-7.111-0.668-9.762
				c-0.836-1.589-2.492-2.96-3.938-3.957c-1.31-0.903-1.672-4.658-3.249-4.924C467.009,61.354,461.381,63.774,459.575,63.295z"/>
		</g>
		
			<linearGradient id="SVGID_3_" gradientUnits="userSpaceOnUse" x1="332.3008" y1="35.2637" x2="363.6162" y2="35.2637" gradientTransform="matrix(-0.6574 -0.7535 -0.7535 0.6574 724.2985 311.4637)">
			<stop  offset="0" style="stop-color:#353B45"/>
			<stop  offset="0.0837" style="stop-color:#303743"/>
			<stop  offset="0.3767" style="stop-color:#212B3D"/>
			<stop  offset="0.6785" style="stop-color:#172439"/>
			<stop  offset="1" style="stop-color:#142138"/>
		</linearGradient>
		<path fill="url(#SVGID_3_)" d="M479.854,82.281c0.016,0.015-0.244-1.187,1.805-3.115c6.776-6.38-0.472-18.859-7.855-21.033
			c-3.777-1.112-6.192,0.06-7.548-3.694c0.098,0.269-1.526,0.958-1.688,1.094c-0.886,0.75-1.308,1.278-1.336,2.517
			c-0.125,5.454,4.756,10.532,8.449,13.967c1.66,1.544-2.426,0.479-4.074,0.794c-1.072,0.205-3.854,3.144-4.452,3.588
			c1.549,1.929,2.928,0.188,5.017,1.119c1.93,0.861,0.707,3.316-1.092,3.607c-2.786,0.45-3.92-1.387-3.92-1.387
			c-1.276,0.693-1.481,4.83-2.484,5.912c1.385,0.761,9.459,2.18,11.353,2.157C476.073,87.759,478.555,85.521,479.854,82.281z"/>
	</g>
	<path fill="#F15F6A" d="M462.155,88.321c2.961,33.03-35.072,64.699-35.072,64.699s-24.834,0.936-23.641-25.158
		c0,0,1.933-4.745,17.307-18.678c10.271-9.308,17.487-23.2,24.715-22.924C465.204,87.016,462.155,88.321,462.155,88.321z"/>
	<linearGradient id="SVGID_4_" gradientUnits="userSpaceOnUse" x1="369.9102" y1="125.3428" x2="465.6855" y2="125.3428">
		<stop  offset="0" style="stop-color:#353B45"/>
		<stop  offset="0.0837" style="stop-color:#303743"/>
		<stop  offset="0.3767" style="stop-color:#212B3D"/>
		<stop  offset="0.6785" style="stop-color:#172439"/>
		<stop  offset="1" style="stop-color:#142138"/>
	</linearGradient>
	<path fill="url(#SVGID_4_)" d="M369.91,154.842c0,0,22.904,8.543,53.43-3.035c30.525-11.579,38.854-65.646,38.854-65.646
		l3.492,1.771c0,0-3.399,59.664-43.59,72.631c-30.726,9.91-52.186-1.893-52.186-1.893V154.842z"/>
	<g>
		<path fill="#F8D2A1" d="M458.48,121.316c0,0,3.657,12.673,3.86,18.99c0.204,6.317-2.496,27.762-2.496,27.762l5.817,0.736
			c0,0,5.17-25.561,5.291-33.903c0.121-8.341-4.688-21.855-4.688-21.855L458.48,121.316z"/>
		<path fill="#F15F6A" d="M458.117,121.851c4.224,18.455,2.473,43.188,2.473,43.188l6.313,0.402
			c6.921-14.477,6.272-46.554,2.613-60.05c-2.15-7.93-3.417-15.924-8.782-17.157c-3.354-0.771-10.254,1.684-11.178,4.999
			C447.551,100.426,456.045,112.798,458.117,121.851z"/>
		<path fill="#F8D2A1" d="M457.242,171.258c-1.394,2.652-2.024,4.598-1.204,5.268c0.566,0.461,1.478-2.115,2.578-3.033
			c0.323,1.072,0.366,3.078-0.32,4.766c-0.777,1.912-0.709,3.549,0.744,3.689s3.817,0.045,4.344-1.16
			c0.524-1.205,1.72-6.229,2.366-7.9c0.646-1.672-0.211-3.594,0.035-4.551s-4.293-2.561-4.293-2.561
			c-0.249,0.385-1.647,2.293-1.647,2.293s-1.179,1.41-1.584,1.668C457.854,169.992,457.242,171.258,457.242,171.258z"/>
	</g>
</g>
<line fill="none" stroke="#A6AEBB" stroke-width="0.5" stroke-miterlimit="10" x1="0.841" y1="228.16" x2="499.159" y2="228.16"/>
<g>
	<g>
		<g>
			<path fill="#5FBF83" d="M181.988,75.071c0,0,1.538-3.764,4.331-7.117s6.957-8.937,6.957-8.937s-2.031,3.975-4.788,8.464
				C185.73,71.972,181.988,75.071,181.988,75.071z"/>
			<path fill="#5FBF83" d="M184.876,68.528c0,0,3.092-2.43,4.949-7.572s3.549-9.058,3.549-9.058s-4.011,5.738-5.735,9.715
				C185.915,65.589,184.876,68.528,184.876,68.528z"/>
			<path fill="#5FBF83" d="M182.196,74.343c0,0,1.618-5.882,1.935-10.577c0.318-4.695,0.282-7.644,0.282-7.644
				s-2.04,8.519-2.655,12.137S182.196,74.343,182.196,74.343z"/>
			<path fill="#5FBF83" d="M180.812,78.248c0,0,0.518-6.058-1.186-11.478c-1.703-5.419-1.795-8.86-1.795-8.86
				s-0.817,5.674,0.153,10.565C178.954,73.367,180.812,78.248,180.812,78.248z"/>
			<path fill="#5FBF83" d="M181.313,76.91c0,0,4.303-3.675,6.478-4.54c2.175-0.864,5.204-3.383,5.204-3.383
				s-3.738,4.786-5.825,5.734C185.082,75.67,181.313,76.91,181.313,76.91z"/>
			<path fill="#5FBF83" d="M179.828,82.052c0,0,0.417-3.308-1.506-7.996c-1.922-4.687-2.368-7.005-2.368-7.005
				s-0.114,6.364,1.151,8.752C178.371,78.19,179.828,82.052,179.828,82.052z"/>
			<path fill="#5FBF83" d="M180.23,79.643c0,0,2.473-1.65,4.857-1.985c2.384-0.335,3.021-0.659,3.021-0.659
				s-1.206,2.203-4.146,2.574C181.021,79.945,180.23,79.643,180.23,79.643z"/>
			<path fill="#5FBF83" d="M178.612,85.208c0.534-2.08,1.223-5.295,1.932-7.444c1.565-4.742,5.29-10.852,5.29-10.852
				c-2.275,5.045-3.936,7.881-5.079,12.231c-0.454,1.725-1.237,4.118-1.661,5.681C179.025,85.253,178.682,85.613,178.612,85.208z"/>
		</g>
		<g>
			<path fill="#89CC9E" d="M179.71,76.767c0,0-0.244-4.315-1.891-8.652c-1.648-4.337-3.902-11.389-3.902-11.389
				s0.667,4.697,1.885,10.164S179.71,76.767,179.71,76.767z"/>
			<path fill="#89CC9E" d="M179.071,69.19c0,0-2.268-3.512-2.355-9.323c-0.087-5.812-0.434-10.333-0.434-10.333
				s2.047,7.155,2.404,11.749C179.043,65.877,179.071,69.19,179.071,69.19z"/>
			<path fill="#89CC9E" d="M179.753,75.962c0,0,0.409-6.472,1.714-11.301c1.305-4.83,2.36-7.781,2.36-7.781
				s-0.896,9.269-1.529,13.118S179.753,75.962,179.753,75.962z"/>
			<path fill="#89CC9E" d="M179.794,80.367c0,0,1.575-6.269,5.162-11.127c3.586-4.858,4.869-8.284,4.869-8.284
				s-1.141,5.986-3.808,10.566S179.794,80.367,179.794,80.367z"/>
			<path fill="#89CC9E" d="M179.752,78.848c0,0-3.054-5.183-4.941-6.804c-1.887-1.622-4.06-5.201-4.06-5.201
				s2.102,6.104,3.872,7.779S179.752,78.848,179.752,78.848z"/>
			<path fill="#89CC9E" d="M179.466,84.53c0,0,0.726-3.469,4.28-7.516c3.554-4.046,4.803-6.223,4.803-6.223
				s-2.086,6.437-4.185,8.399C182.267,81.153,179.466,84.53,179.466,84.53z"/>
			<path fill="#89CC9E" d="M179.896,81.969c0,0-1.915-2.514-4.196-3.675c-2.281-1.161-2.808-1.707-2.808-1.707
				s0.45,2.631,3.276,4.022C178.996,82,179.896,81.969,179.896,81.969z"/>
			<path fill="#5FBF83" d="M179.596,88.124c0.183-2.275,0.603-5.745,0.633-8.15c0.067-5.309-1.563-12.738-1.563-12.738
				c0.541,5.858,1.229,9.284,0.874,14.052c-0.141,1.89-0.181,4.566-0.296,6.285C179.166,88.026,179.386,88.506,179.596,88.124z"/>
		</g>
		<g>
			<path fill="#5FBF83" d="M176.438,77.661c0,0-1.538-3.764-4.331-7.117c-2.793-3.354-6.957-8.937-6.957-8.937
				s2.031,3.974,4.788,8.464C172.696,74.561,176.438,77.661,176.438,77.661z"/>
			<path fill="#5FBF83" d="M173.55,71.118c0,0-3.092-2.43-4.949-7.572s-3.549-9.058-3.549-9.058s4.012,5.738,5.735,9.714
				C172.511,68.179,173.55,71.118,173.55,71.118z"/>
			<path fill="#5FBF83" d="M176.23,76.933c0,0-1.618-5.882-1.935-10.577c-0.317-4.696-0.282-7.644-0.282-7.644
				s2.04,8.519,2.655,12.137S176.23,76.933,176.23,76.933z"/>
			<path fill="#5FBF83" d="M177.615,80.838c0,0-0.518-6.058,1.185-11.478c1.703-5.42,1.795-8.86,1.795-8.86
				s0.817,5.674-0.153,10.565C179.472,75.956,177.615,80.838,177.615,80.838z"/>
			<path fill="#5FBF83" d="M177.113,79.5c0,0-4.304-3.675-6.479-4.54s-5.204-3.384-5.204-3.384s3.739,4.786,5.826,5.735
				S177.113,79.5,177.113,79.5z"/>
			<path fill="#5FBF83" d="M178.598,84.641c0,0-0.417-3.308,1.506-7.995s2.368-7.006,2.368-7.006s0.114,6.364-1.151,8.752
				C180.056,80.78,178.598,84.641,178.598,84.641z"/>
			<path fill="#5FBF83" d="M178.196,82.232c0,0-2.472-1.65-4.857-1.985c-2.384-0.334-3.02-0.658-3.02-0.658s1.206,2.203,4.146,2.574
				S178.196,82.232,178.196,82.232z"/>
			<path fill="#5FBF83" d="M179.813,87.798c-0.534-2.08-1.223-5.295-1.932-7.443c-1.565-4.742-5.289-10.852-5.289-10.852
				c2.274,5.044,3.936,7.881,5.079,12.231c0.453,1.724,1.236,4.117,1.66,5.681C179.401,87.843,179.744,88.203,179.813,87.798z"/>
		</g>
		<polygon fill="#D3DDEB" points="185.278,102.322 173.611,102.322 170.006,81.772 189.303,81.772 		"/>
	</g>
	<g>
		<g>
			<polygon fill="#DCA96E" points="318.572,107.967 337.813,228.273 341.517,228.262 326.293,107.943 			"/>
			<polygon fill="#DCA96E" points="185.934,108.023 160.875,228.447 155.885,228.459 175.531,108.047 			"/>
		</g>
		<rect x="146.487" y="100.936" fill="#DCA96E" width="207.025" height="9.265"/>
		<rect x="136.562" y="100.936" fill="#F2BA7A" width="226.877" height="6.15"/>
	</g>
	<g>
		<g>
			<polygon fill="#A6AEBB" points="299.993,97.692 291.941,97.692 283.889,46.316 290.011,46.316 			"/>
			<polygon fill="#D3DDEB" points="297.682,97.692 266.254,97.692 258.202,46.316 289.63,46.316 			"/>
			<rect x="265.832" y="96.528" fill="#D3DDEB" width="34.161" height="3.833"/>
			<rect x="299.993" y="96.528" fill="#A6AEBB" width="43.072" height="3.833"/>
			<path fill="#A6AEBB" d="M280.422,74.503c0.909,3.933,0.269,8.18-1.431,9.487c-1.699,1.307-3.813-0.822-4.724-4.755
				c-0.909-3.933-0.27-8.18,1.43-9.487C277.396,68.441,279.512,70.57,280.422,74.503z"/>
		</g>
	</g>
	<g>
		<path fill="#A6AEBB" d="M231.534,100.181h-4.458c-1.842,0-3.408-1.342-3.691-3.162l-1.781-11.471h15.401l-1.781,11.471
			C234.943,98.838,233.376,100.181,231.534,100.181z"/>
		<g>
			<path fill="#A6AEBB" d="M235.665,97.736c-0.163,0-0.325-0.006-0.493-0.019l-0.208-0.016l-0.166-0.128
				c-0.112-0.084-2.712-2.121-2.712-5.035c0-2.984,1.982-5.414,4.418-5.414c1.468,0,2.776,0.556,3.587,1.525
				c0.579,0.692,1.192,1.953,0.822,4.013l0,0C240.325,95.912,238.424,97.736,235.665,97.736z M235.497,96.332
				c2.813,0.09,3.7-2.067,4.034-3.917l0,0c0.221-1.225,0.046-2.189-0.519-2.863c-0.542-0.65-1.457-1.023-2.509-1.023
				c-1.662,0-3.015,1.799-3.015,4.011C233.488,94.399,235,95.89,235.497,96.332z"/>
		</g>
	</g>
	<polygon fill="#D3DDEB" points="220.07,101.188 239.59,101.188 242.703,97.742 216.957,97.742 	"/>
</g>
<g>
	<rect x="23.229" y="26.198" fill="#B6BFCC" width="93.404" height="202.035"/>
	<rect x="33.982" y="35.025" fill="#D3DDEB" width="71.899" height="21.185"/>
	<path fill="#FFFFFF" d="M78.53,48.185H61.333c-0.442,0-0.8-0.358-0.8-0.8v-3.536c0-0.442,0.358-0.8,0.8-0.8H78.53
		c0.441,0,0.8,0.358,0.8,0.8v3.536C79.33,47.827,78.972,48.185,78.53,48.185z"/>
	<rect x="33.982" y="61.984" fill="#D3DDEB" width="71.899" height="21.185"/>
	<path fill="#FFFFFF" d="M78.53,75.145H61.333c-0.442,0-0.8-0.358-0.8-0.8v-3.536c0-0.441,0.358-0.8,0.8-0.8H78.53
		c0.441,0,0.8,0.358,0.8,0.8v3.536C79.33,74.787,78.972,75.145,78.53,75.145z"/>
	<rect x="33.982" y="88.944" fill="#D3DDEB" width="71.899" height="21.184"/>
	<path fill="#FFFFFF" d="M78.53,102.104H61.333c-0.442,0-0.8-0.358-0.8-0.8v-3.536c0-0.442,0.358-0.8,0.8-0.8H78.53
		c0.441,0,0.8,0.358,0.8,0.8v3.536C79.33,101.746,78.972,102.104,78.53,102.104z"/>
	<rect x="33.982" y="116.208" fill="#D3DDEB" width="71.899" height="103.841"/>
	<path fill="#FFFFFF" d="M78.53,129.368H61.333c-0.442,0-0.8-0.358-0.8-0.801v-3.535c0-0.442,0.358-0.8,0.8-0.8H78.53
		c0.441,0,0.8,0.357,0.8,0.8v3.535C79.33,129.009,78.972,129.368,78.53,129.368z"/>
</g>
</svg>
