<?xml version="1.0" encoding="utf-8"?>
<!-- Generator: Adobe Illustrator 23.0.2, SVG Export Plug-In . SVG Version: 6.00 Build 0)  -->
<svg version="1.1" id="Layer_1" xmlns="http://www.w3.org/2000/svg" xmlns:xlink="http://www.w3.org/1999/xlink" x="0px" y="0px"
	 viewBox="0 0 232.5 187.5" style="enable-background:new 0 0 232.5 187.5;" xml:space="preserve">
<style type="text/css">
	.st0{fill:#E8E8E8;}
	.st1{fill:#333333;}
</style>
<g>
	<rect x="15" y="15" class="st0" width="202.5" height="30"/>
	<path class="st1" d="M221.25,0h-210C5.05,0,0,5.05,0,11.25V150c0,6.2,5.05,11.25,11.25,11.25H75V180H56.25v7.5h165
		c6.2,0,11.25-5.05,11.25-11.25v-165C232.5,5.05,227.45,0,221.25,0L221.25,0z M11.25,7.5h210c2.07,0,3.75,1.68,3.75,3.75v34.44
		c-1.18-0.42-2.43-0.69-3.75-0.69H15v75h108.75v7.5H7.5V11.25C7.5,9.18,9.18,7.5,11.25,7.5L11.25,7.5z M123.75,60h-7.5v7.5h7.5
		v11.25h-7.5v7.5h7.5V97.5h-7.5v7.5h7.5v7.5H22.5v-60h101.94c-0.42,1.18-0.69,2.43-0.69,3.75V60z M7.5,150v-15h116.25v18.75H11.25
		C9.18,153.75,7.5,152.07,7.5,150L7.5,150z M82.5,161.25h41.25v15c0,1.32,0.27,2.58,0.69,3.75H82.5V161.25z M225,176.25
		c0,2.07-1.68,3.75-3.75,3.75H135c-2.07,0-3.75-1.68-3.75-3.75v-120c0-2.07,1.68-3.75,3.75-3.75h75V60h-71.25v112.5h78.75v-120h3.75
		c2.07,0,3.75,1.68,3.75,3.75V176.25z M210,69.52V165h-63.75V67.5H210V69.52z M210,69.52"/>
	<path class="st1" d="M37.5,30c0,2.07-1.68,3.75-3.75,3.75C31.68,33.75,30,32.07,30,30c0-2.07,1.68-3.75,3.75-3.75
		C35.82,26.25,37.5,27.93,37.5,30L37.5,30z M37.5,30"/>
	<path class="st1" d="M48.75,30c0,2.07-1.68,3.75-3.75,3.75c-2.07,0-3.75-1.68-3.75-3.75c0-2.07,1.68-3.75,3.75-3.75
		C47.07,26.25,48.75,27.93,48.75,30L48.75,30z M48.75,30"/>
	<path class="st1" d="M60,30c0,2.07-1.68,3.75-3.75,3.75c-2.07,0-3.75-1.68-3.75-3.75c0-2.07,1.68-3.75,3.75-3.75
		C58.32,26.25,60,27.93,60,30L60,30z M60,30"/>
	<path class="st1" d="M30,105h78.75V60H30V105z M37.5,67.5h63.75v30H37.5V67.5z M37.5,67.5"/>
	<path class="st1" d="M183.75,176.25c0,2.07-1.68,3.75-3.75,3.75c-2.07,0-3.75-1.68-3.75-3.75c0-2.07,1.68-3.75,3.75-3.75
		C182.07,172.5,183.75,174.18,183.75,176.25L183.75,176.25z M183.75,176.25"/>
	<path class="st1" d="M202.5,75h-48.75v37.5h48.75V75z M195,105h-33.75V82.5H195V105z M195,105"/>
	<rect x="153.75" y="120" class="st1" width="48.75" height="7.5"/>
	<rect x="153.75" y="135" class="st1" width="48.75" height="7.5"/>
	<rect x="153.75" y="150" class="st1" width="48.75" height="7.5"/>
</g>
</svg>
