<?xml version="1.0" encoding="iso-8859-1"?>
<!-- Generator: Adobe Illustrator 18.1.1, SVG Export Plug-In . SVG Version: 6.00 Build 0)  -->
<svg version="1.1" id="Capa_1" xmlns="http://www.w3.org/2000/svg" xmlns:xlink="http://www.w3.org/1999/xlink" x="0px" y="0px"
	 viewBox="0 0 487.243 487.243" style="enable-background:new 0 0 487.243 487.243;" xml:space="preserve">
<g>
	<g>
		<rect x="200.873" y="84.968" style="fill:#010002;" width="11.372" height="88.114"/>
		<path style="fill:#010002;" d="M253.953,84.31c-9.161,0-16.355,0.797-21.841,1.699v87.073h11.372v-35.294
			c2.617,0.65,5.763,0.772,9.161,0.772c11.112,0,20.923-3.251,26.93-9.673c4.446-4.576,6.795-10.844,6.795-18.818
			c0-7.852-2.878-14.258-7.698-18.444C273.437,86.927,265.187,84.31,253.953,84.31z M252.904,129.415
			c-3.788,0-6.934-0.26-9.413-0.919V94.243c1.967-0.52,5.763-0.919,10.722-0.919c12.542,0,20.793,5.625,20.793,17.257
			C274.998,122.75,266.634,129.415,252.904,129.415z"/>
		<path style="fill:#010002;" d="M243.622,0c-70.743,0-128.285,57.55-128.285,128.269c0,68.418,118.84,337.637,123.896,349.073
			l4.389,9.901l4.381-9.901c5.064-11.437,123.904-280.655,123.904-349.074C371.907,57.542,314.356,0,243.622,0z M243.613,209.457
			c-44.528,0-80.749-36.221-80.749-80.757c0-44.545,36.221-80.766,80.749-80.766c44.553,0,80.79,36.221,80.79,80.766
			S288.158,209.457,243.613,209.457z"/>
	</g>
</g>
<g>
</g>
<g>
</g>
<g>
</g>
<g>
</g>
<g>
</g>
<g>
</g>
<g>
</g>
<g>
</g>
<g>
</g>
<g>
</g>
<g>
</g>
<g>
</g>
<g>
</g>
<g>
</g>
<g>
</g>
</svg>
