<?xml version="1.0" encoding="utf-8"?>
<!-- Generator: Adobe Illustrator 21.1.0, SVG Export Plug-In . SVG Version: 6.00 Build 0)  -->
<svg version="1.1" id="Layer_1" xmlns="http://www.w3.org/2000/svg" xmlns:xlink="http://www.w3.org/1999/xlink" x="0px" y="0px"
	 viewBox="0 0 512 512" style="enable-background:new 0 0 512 512;" xml:space="preserve">
<style type="text/css">
	.st0{fill:#40DEA0;}
</style>
<g>
	<path class="st0" d="M159.3,212.7c-6.8-7.4-18.5-8-25.9-1.2c-7.4,6.8-8,18.5-1.2,25.9l93,101c3.7,3.7,8,6.2,12.9,6.2c0,0,0,0,0.6,0
		c4.9,0,9.9-1.8,12.9-5.5l235.2-234.6c7.4-7.4,7.4-19.1,0-25.9c-7.4-6.8-19.1-7.4-25.9,0L239.4,299.6L159.3,212.7z"/>
	<path class="st0" d="M482.6,238c-10.5,0-18.5,8-18.5,18.5c0,114.5-93.6,208.1-208.1,208.1S47.9,371,47.9,256.4S141.5,48.3,256,48.3
		c10.5,0,18.5-8,18.5-18.5s-8-18.5-18.5-18.5c-134.9,0-245.1,110.2-245.1,245.1S121.1,501.5,256,501.5s245.1-110.2,245.1-245.1
		C501.1,246,493.1,238,482.6,238z"/>
</g>
</svg>
