<svg height="512pt" viewBox="0 -81 512.00001 512" width="512pt" xmlns="http://www.w3.org/2000/svg"><path d="m42.667969 34.132812h17.066406v17.066407h-17.066406zm0 0"/><path d="m76.800781 34.132812h17.066407v17.066407h-17.066407zm0 0"/><path d="m110.933594 34.132812h17.066406v17.066407h-17.066406zm0 0"/><path d="m196.078125 211.199219c0 24.742187-20.058594 44.800781-44.800781 44.800781-24.742188 0-44.796875-20.058594-44.796875-44.800781 0-24.742188 20.054687-44.800781 44.796875-44.800781 24.742187 0 44.800781 20.058593 44.800781 44.800781zm0 0"/><path d="m392.34375 91.734375c0 24.742187-20.054688 44.800781-44.796875 44.800781s-44.800781-20.058594-44.800781-44.800781 20.058594-44.800781 44.800781-44.800781 44.796875 20.058594 44.796875 44.800781zm0 0"/><path d="m503.464844 0h-494.929688c-4.714844 0-8.535156 3.820312-8.535156 8.535156v68.265625c0 4.710938 3.820312 8.53125 8.535156 8.53125v264.535157h494.929688v-264.535157c4.714844 0 8.535156-3.820312 8.535156-8.53125v-68.265625c0-4.714844-3.820312-8.535156-8.535156-8.535156zm-460.796875 211.011719c59.984375-59.984375 157.238281-59.984375 217.222656 0-59.984375 59.984375-157.238281 59.984375-217.222656 0zm398.242187 77.550781c-31.433594 31.429688-82.386718 31.429688-113.820312 0l-15.496094-15.496094 15.496094-15.496094c31.433594-31.425781 82.386718-31.425781 113.820312 0l15.496094 15.496094zm15.246094-197.015625c-59.984375 59.984375-157.238281 59.984375-217.222656 0 2.191406-2.195313 4.488281-4.214844 6.828125-6.214844h.066406c7.21875-6.410156 15.023437-12.121093 23.3125-17.066406h-252.074219v-51.199219h477.867188v51.199219h-68.957032c8.289063 4.945313 16.09375 10.65625 23.3125 17.066406h.066407c2.3125 2 4.617187 4.019531 6.800781 6.214844zm0 0"/><path d="m423.015625 273.066406c0 21.546875-17.46875 39.015625-39.015625 39.015625s-39.015625-17.46875-39.015625-39.015625 17.46875-39.015625 39.015625-39.015625 39.015625 17.46875 39.015625 39.015625zm0 0"/></svg>