<svg width="492" height="164" viewBox="0 0 492 164" fill="none" xmlns="http://www.w3.org/2000/svg">
<path d="M468.948 7.48301C478.212 5.48754 487.695 1.66289 491.279 0V81.8142H0V14.4672C16.5414 35.6191 60.3761 47.8913 80.2257 51.3833C91.2533 53.2125 116.617 53.0795 129.85 37.9139C143.083 22.7483 162.933 25.6085 171.203 28.9343L181.955 32.4264C185.539 34.5881 199.655 35.4196 227.444 21.4513C255.234 7.48301 278.722 17.2941 286.993 23.9456C291.404 26.9388 304.527 35.7189 321.73 46.8935C346.211 54.8754 369.976 50.2193 378.798 46.8935C386.241 43.5677 403.445 34.5216 412.708 24.9434C424.287 12.9705 457.369 9.97735 468.948 7.48301Z" fill="url(#paint0_linear)" fill-opacity="0.2"/>
<path d="M468.948 89.483C478.212 87.4875 487.695 83.6629 491.279 82V138V163.814H0V138V96.4672C16.5414 117.619 60.3761 129.891 80.2257 133.383C91.2533 135.213 116.617 135.079 129.85 119.914C143.083 104.748 162.933 107.609 171.203 110.934L181.955 114.426C185.539 116.588 199.655 117.42 227.444 103.451C255.234 89.483 278.722 99.2941 286.993 105.946C291.404 108.939 304.527 117.719 321.73 128.894C346.211 136.875 369.976 132.219 378.798 128.894C386.241 125.568 403.444 116.522 412.708 106.943C424.287 94.9705 457.369 91.9773 468.948 89.483Z" fill="url(#paint1_linear)" fill-opacity="0.1"/>
<defs>
<linearGradient id="paint0_linear" x1="245.64" y1="-1.05762e-07" x2="245.936" y2="75.0022" gradientUnits="userSpaceOnUse">
<stop stop-color="white"/>
<stop offset="1" stop-color="white" stop-opacity="0"/>
</linearGradient>
<linearGradient id="paint1_linear" x1="245.64" y1="82" x2="245.936" y2="157.002" gradientUnits="userSpaceOnUse">
<stop stop-color="white"/>
<stop offset="1" stop-color="white" stop-opacity="0"/>
</linearGradient>
</defs>
</svg>
