<?xml version="1.0" encoding="utf-8"?>
<!-- Generator: Adobe Illustrator 16.0.0, SVG Export Plug-In . SVG Version: 6.00 Build 0)  -->
<!DOCTYPE svg PUBLIC "-//W3C//DTD SVG 1.1//EN" "http://www.w3.org/Graphics/SVG/1.1/DTD/svg11.dtd">
<svg version="1.1" id="Layer_1" xmlns="http://www.w3.org/2000/svg" xmlns:xlink="http://www.w3.org/1999/xlink" x="0px" y="0px"
	 width="500px" height="360.17px" viewBox="0 0 500 360.17" enable-background="new 0 0 500 360.17" xml:space="preserve">
<g>
	<path fill="#71C7C2" d="M277.973,337.935h174.259c-6.138-23.591-27.561-41.014-53.072-41.014c-7.142,0-13.957,1.378-20.215,3.862
		c-6.335-13.27-19.836-22.459-35.52-22.459c-5.051,0-9.863,0.986-14.301,2.719c-4.273-9.134-13.519-15.474-24.268-15.474
		c-14.806,0-26.808,12.002-26.808,26.808c0,1.031,0.073,2.045,0.187,3.048h-0.263V337.935z"/>
	<path fill="#71C7C2" d="M226.71,337.935H52.452c6.137-23.591,27.56-41.014,53.072-41.014c7.141,0,13.958,1.378,20.214,3.862
		c6.335-13.27,19.838-22.459,35.52-22.459c5.051,0,9.864,0.986,14.301,2.719c4.273-9.134,13.519-15.474,24.268-15.474
		c14.806,0,26.807,12.002,26.807,26.808c0,1.031-0.073,2.045-0.186,3.048h0.262V337.935z"/>
	<path fill="#EAF0F9" d="M411.893,165.46c-0.709-2.279-2.64-4.015-5.031-4.445c-0.691-5.667-5.513-10.061-11.366-10.061
		c-1.156,0-2.27,0.175-3.322,0.493c-1.763-9.127-9.785-16.024-19.429-16.024c-9.708,0-17.77,6.994-19.459,16.213
		c-0.46-0.05-0.928-0.081-1.402-0.081c-5.017,0-9.34,2.918-11.4,7.143c-0.626-0.171-1.28-0.27-1.961-0.27
		c-3.012,0-5.602,1.795-6.769,4.371c-0.088-0.007-0.174-0.026-0.265-0.026c-1.567,0-2.848,1.172-3.047,2.687H411.893z"/>
	<path fill="#EAF0F9" d="M489.228,237.796c-0.803-3.579-3.676-6.366-7.313-7.019c-0.981-8.033-7.813-14.26-16.111-14.26
		c-1.637,0-3.216,0.247-4.705,0.697c-2.501-12.936-13.872-22.712-27.539-22.712c-13.761,0-25.187,9.913-27.58,22.982
		c-0.654-0.072-1.315-0.116-1.987-0.116c-8.752,0-16.038,6.254-17.651,14.534c-0.259-0.029-0.512-0.078-0.776-0.078
		c-3.478,0-6.314,2.608-6.738,5.971H489.228z"/>
	<path fill="#EAF0F9" d="M175.628,171.307c-1.027-3.291-3.814-5.8-7.27-6.42c-0.999-8.188-7.964-14.533-16.422-14.533
		c-1.668,0-3.276,0.251-4.795,0.711c-2.549-13.186-14.139-23.147-28.068-23.147c-14.025,0-25.669,10.102-28.109,23.422
		c-0.666-0.073-1.341-0.117-2.026-0.117c-7.248,0-13.493,4.215-16.471,10.317c-0.905-0.246-1.851-0.389-2.832-0.389
		c-4.353,0-8.09,2.593-9.778,6.314c-0.126-0.011-0.25-0.037-0.381-0.037c-2.265,0-4.116,1.694-4.403,3.88H175.628z"/>
	<path fill="#EAF0F9" d="M91.801,232.561c-0.588-2.619-2.69-4.657-5.351-5.136c-0.719-5.88-5.72-10.435-11.792-10.435
		c-1.199,0-2.352,0.181-3.443,0.51c-1.83-9.467-10.152-16.619-20.153-16.619c-10.071,0-18.43,7.253-20.182,16.816
		c-0.479-0.053-0.964-0.084-1.455-0.084c-6.406,0-11.737,4.575-12.917,10.637c-0.189-0.023-0.374-0.059-0.568-0.059
		c-2.546,0-4.622,1.909-4.931,4.369H91.801z"/>
	<g>
		<path fill="#E27D4B" d="M244.52,139.207c-4.55,0.656-8.957,2.251-12.626,4.99c-2.667,1.993-4.429,4.589-5.263,7.813
			c-0.711,2.746-0.826,5.585-1.294,8.372c-0.923,5.495-6.798,7.208-9.802,11.344c-0.96,1.323-1.66,2.829-1.985,4.434
			c-0.395,1.943-0.022,3.572,0.507,5.43c0.766,2.693,0.835,4.805-1.064,7.004c-1.112,1.289-2.235,2.507-3.124,3.848
			c-2.316,3.151-3.641,6.835-4.023,10.566h0.203c-0.189,1.477-0.342,2.96-0.588,4.429c-0.923,5.495-6.798,7.208-9.802,11.344
			c-0.96,1.323-1.66,2.829-1.985,4.434c-0.395,1.942-0.022,3.572,0.507,5.43c0.766,2.691,0.835,4.805-1.064,7.004
			c-1.113,1.289-2.235,2.506-3.124,3.85c-2.315,3.149-3.64,6.834-4.022,10.564h38.674l19.876-47.054V139.207z"/>
		<g>
			<g>
				<g>
					<path fill="#EDC0AE" d="M202.091,291.147c-0.091-0.077-0.187-0.147-0.279-0.223c-4.434,3.416-9.131,6.501-14.063,9.197
						c1.971,3.931,5.137,7.32,8.963,8.716c4.578-2.404,8.958-5.149,13.131-8.17C209.287,299.52,204.257,292.978,202.091,291.147z"/>
					<g>
						<path fill="#EDC0AE" d="M180.627,302.178c-0.502,1.631,0.191,3.479,0.321,5.268c0.066,0.917,0.095,2.082,0.863,2.726
							c0.729,0.608,1.673,0.34,2.264-0.314c0.709-0.787,0.884-1.878,0.668-2.911c1.362,2.271,2.771,4.562,4.614,6.474
							c1.202,1.247,2.287,2.63,4.013,1.775c1.626-0.807,4.138-3.061,4.768-4.839c0.771-2.182-0.738-4.575-1.892-6.313
							c-2.367-3.574-6.152-7.072-10.746-5.697c-1.472,0.44-2.908,1.262-3.985,2.363
							C181.064,301.172,180.786,301.664,180.627,302.178z"/>
						<path fill="#EDC0AE" d="M185.105,299.57l-6.042,4.816c-5.567,4.387,6.443,17.086,12.793,12.229l4.052-3.231
							c0.973-0.775,1.134-2.192,0.358-3.165c-0.646-0.812-1.734-1.048-2.643-0.661c0.614-0.802,0.636-1.945-0.023-2.771
							c-0.645-0.81-1.732-1.047-2.641-0.659c0.614-0.804,0.636-1.945-0.022-2.771c-0.646-0.811-1.733-1.047-2.643-0.659
							c0.615-0.804,0.636-1.945-0.021-2.771C187.497,298.955,186.078,298.795,185.105,299.57z"/>
						<path fill="#EDC0AE" d="M181.515,300.709c-0.45,0.463-0.729,0.955-0.887,1.469c-0.502,1.631,0.191,3.479,0.321,5.268
							c0.066,0.917,0.095,2.082,0.863,2.726c0.729,0.608,1.673,0.34,2.264-0.314c0.759-0.842,0.73-2.042,0.844-3.103
							c0.102-0.949,0.672-2.856,3.282-3.96c2.382-1.007,6.238-0.876,7.731,0.792c-2.38-3.407-6.034-6.557-10.432-5.24
							C184.028,298.786,182.592,299.607,181.515,300.709z"/>
					</g>
				</g>
			</g>
			<g>
				<path fill="#F0C840" d="M230.26,267.707c-9.224,6.984-24.857,17.019-36.523,24.338c1.548,6.628,5.692,11.915,11.89,15.177
					c6.657-4.401,15.8-9.683,24.634-15.329V267.707z"/>
			</g>
		</g>
		<path fill="#F2D15C" d="M250.952,202.55h-2.011c-0.53,0-1.058,0.013-1.585,0.042c-11.477,0.615-18.281,26.56-27.252,36.243
			c-3.174,3.426-4.112,8.383-2.431,12.74c1.337,3.464,3.488,6.217,5.376,8.97c-1.083,24.49-7.815,52.712-7.815,52.712h71.44
			l-8.075-84.932c-0.43-14.336-11.597-25.03-26.2-25.739C251.917,202.562,251.435,202.55,250.952,202.55z"/>
		<g>
			<path fill="#EDBCAA" d="M267.499,161.484c0-12.101-9.693-21.937-21.739-22.167c-12.43-0.238-22.603,10.171-22.603,22.603
				c0,4.395,0,9.59,0,14.611c0,11.233,9.105,20.338,20.338,20.338h0.827l-2.064,18.492c8.372,2.71,22.107-5.009,22.107-10.544
				v-13.523c0-8.327,0.674-16.67,2.559-24.78C267.3,164.898,267.499,163.214,267.499,161.484z"/>
			<path fill="#E27D4B" d="M314.695,250.061c-0.382-3.73-1.706-7.415-4.022-10.564c-0.889-1.344-2.011-2.561-3.123-3.85
				c-1.899-2.199-1.83-4.313-1.064-7.004c0.529-1.857,0.902-3.487,0.507-5.43c-0.325-1.604-1.025-3.11-1.985-4.434
				c-3.004-4.136-8.879-5.849-9.802-11.344c-0.468-2.787-0.583-5.626-1.294-8.37c-0.541-2.093-1.515-3.892-2.829-5.463
				c-0.165-0.246-0.293-0.508-0.468-0.748c-0.891-1.344-2.012-2.56-3.126-3.851c-1.897-2.199-1.828-4.311-1.063-7.002
				c0.53-1.858,0.902-3.488,0.508-5.432c-0.893-4.389-4.282-6.735-7.493-9.436c-5.477-4.609-3.828-11.928-6.549-17.986
				c-4.903-10.923-21.204-14.237-31.87-11.93c-11.442,2.475-19.658,13.069-19.658,24.701v4.617l33.627-0.029
				c0.01,0.007,0.364,0.016,0.972,0.026v37.81l20.059,45.718H314.695z"/>
		</g>
		<g>
			<g>
				<g>
					<path fill="#F2D15C" d="M172.414,355.201l19.703-0.54c4.812-0.131,8.319-3.11,8.188-7.923l0,0
						c-0.131-4.812-4.113-7.663-8.926-7.532l-18.207,0.656c-4.812,0.133-9.736,3.071-9.603,7.883l0,0
						C163.7,352.558,167.601,355.334,172.414,355.201z"/>
				</g>
				<path fill="#FFFFFF" d="M172.715,340.412l0.392,14.268l-0.708,0.02c-4.863,0.132-8.21-2.668-8.329-6.967
					C163.954,343.435,168.292,340.711,172.715,340.412z"/>
				<g>
					<g>
						<g>
							<circle fill="#222743" cx="184.469" cy="342.146" r="0.995"/>
							<circle fill="#222743" cx="180.334" cy="342.259" r="0.995"/>
							<circle fill="#222743" cx="176.2" cy="342.372" r="0.995"/>
						</g>
						<g>
							<circle fill="#222743" cx="184.732" cy="351.826" r="0.995"/>
							<circle fill="#222743" cx="180.598" cy="351.939" r="0.995"/>
							<circle fill="#222743" cx="176.465" cy="352.053" r="0.994"/>
						</g>
					</g>
					<g>
						<g>
							<polygon fill="#CFDFDF" points="180.03,352.164 181.076,352.136 184.98,341.765 183.934,341.794 							"/>
							<polygon fill="#CFDFDF" points="175.837,352.279 176.883,352.25 180.789,341.88 179.742,341.909 							"/>
						</g>
						<g>
							
								<rect x="184.075" y="341.777" transform="matrix(-0.9996 0.0271 -0.0271 -0.9996 378.5143 688.6932)" fill="#FFFFFF" width="1.047" height="10.261"/>
							
								<rect x="179.888" y="341.892" transform="matrix(-0.9996 0.0271 -0.0271 -0.9996 370.1464 689.0359)" fill="#FFFFFF" width="1.047" height="10.26"/>
							
								<rect x="175.701" y="342.006" transform="matrix(-0.9996 0.028 -0.028 -0.9996 362.0876 689.2092)" fill="#FFFFFF" width="1.048" height="10.261"/>
						</g>
					</g>
				</g>
			</g>
			<g>
				<path fill="#EDC0AE" d="M210.225,336.097l-17.706,6.314c-1.968,0.701-3.26,2.588-3.202,4.675l0,0
					c0.073,2.662,2.29,4.761,4.952,4.688l16.06-0.44L210.225,336.097z"/>
				<path fill="#21284D" d="M199.595,353.79l-1.137-15.431c0,0,86.156-51.021,133.757-43.738c2.982,0.457,5.624,2.174,7.307,4.677
					l0,0c2.588,3.85,2.5,8.955-0.361,12.605C330.181,323.36,283.654,348.055,199.595,353.79z"/>
			</g>
		</g>
		<g>
			<g>
				<g>
					<path fill="#F2D15C" d="M326.807,355.502l-19.657-1.449c-4.8-0.354-8.167-3.493-7.812-8.293l0,0
						c0.353-4.802,4.463-7.467,9.264-7.112l18.157,1.498c4.801,0.353,9.583,3.518,9.229,8.317l0,0
						C335.633,353.264,331.606,355.856,326.807,355.502z"/>
				</g>
				<path fill="#FFFFFF" d="M327.189,340.716l-1.051,14.232l0.704,0.052c4.854,0.357,8.327-2.283,8.643-6.573
					C335.801,344.139,331.594,341.218,327.189,340.716z"/>
				<g>
					<g>
						<g>
							<circle fill="#222743" cx="315.369" cy="341.902" r="0.994"/>
							<circle fill="#222743" cx="319.493" cy="342.207" r="0.995"/>
							<circle fill="#222743" cx="323.618" cy="342.511" r="0.994"/>
						</g>
						<g>
							<circle fill="#222743" cx="314.656" cy="351.561" r="0.995"/>
							<circle fill="#222743" cx="318.781" cy="351.866" r="0.994"/>
							<circle fill="#222743" cx="322.905" cy="352.17" r="0.995"/>
						</g>
					</g>
					<g>
						<g>
							<polygon fill="#CFDFDF" points="319.34,352.117 318.296,352.04 314.874,341.499 315.918,341.575 							"/>
							<polygon fill="#CFDFDF" points="323.523,352.425 322.479,352.349 319.057,341.807 320.102,341.885 							"/>
						</g>
						<g>
							
								<rect x="314.495" y="341.523" transform="matrix(0.9974 0.0727 -0.0727 0.9974 26.0369 -21.9858)" fill="#FFFFFF" width="1.048" height="10.261"/>
							
								<rect x="318.671" y="341.831" transform="matrix(0.9973 0.0737 -0.0737 0.9973 26.4391 -22.5811)" fill="#FFFFFF" width="1.047" height="10.261"/>
							
								<rect x="322.848" y="342.139" transform="matrix(0.9973 0.0736 -0.0736 0.9973 26.4477 -22.8676)" fill="#FFFFFF" width="1.048" height="10.261"/>
						</g>
					</g>
				</g>
			</g>
			<g>
				<path fill="#EDC0AE" d="M289.919,334.67l17.396,7.126c1.934,0.791,3.137,2.734,2.983,4.817l0,0
					c-0.196,2.657-2.509,4.65-5.165,4.455l-16.021-1.183L289.919,334.67z"/>
				<path fill="#2C366C" d="M299.49,351.191l1.624-13.319c0,0-81.476-41.859-131.138-50.273c-2.975-0.504-5.718,1.91-7.516,4.333
					l0,0c-2.762,3.727-2.912,8.83-0.222,12.608C170.681,316.4,215.786,341.575,299.49,351.191z"/>
			</g>
		</g>
		<g>
			<g>
				<g>
					<g>
						<path fill="#F4DA79" d="M280.509,222.567c-1.067-6.366-7.875-10-13.779-7.395c-0.353,0.154-0.679,0.347-1.005,0.539
							c-0.191-2.293-0.371-4.521-0.536-6.631c-6.591-1.702-13.196-0.481-18.96,3.498c1.99,19.434,1.749,54.498,11.59,65.389
							c0.003,0.003,0.008,0.007,0.012,0.01c3.983,8.717,12.756,4.332,16.348-1.798C283.63,263.094,283.727,241.75,280.509,222.567z"
							/>
						<path fill="#F2D15C" d="M272.247,262.305c-2.922-5.216-5.547-33.951-7.059-53.224c0,0-2.546,42.494,6.119,55.257
							C271.643,263.67,271.96,262.993,272.247,262.305z"/>
					</g>
				</g>
			</g>
			<g>
				<g>
					<path fill="#EDC0AE" d="M262.973,208.624c1.114-4.905,2.596-11.581,3.276-14.415c0.315-1.318,0.633-2.645,0.704-3.997
						c0.06-1.153-0.06-2.31-0.178-3.459c-0.274-2.627-0.554-5.281-1.434-7.77c-0.556-1.574-1.346-3.056-2.257-4.45
						c-0.839-1.284-1.675-3.07-3.064-3.857c-1.38-0.784-1.017,1.383-0.879,2.079c0.404,2.047,1.446,3.861,1.974,5.862
						c0.287,1.085,0.421,2.206,0.554,3.321c0.056,0.455,0.108,0.909,0.164,1.362c0.51,1.777,0.475,3.961,0.475,3.961
						c-0.159-1.321-0.316-2.64-0.475-3.961c-0.389-1.354-1.094-2.472-2.374-2.203c-1.444,0.303-0.521,3.81-0.59,4.625
						c0-0.785-0.751-3.637-1.27-4.064c-0.519-0.429-1.292-0.481-1.851-0.106c-0.935,0.628-0.742,2.905-0.701,4.168
						c0.011,0.204,0.011,0.386,0.003,0.52c0.007-0.138,0.003-0.317-0.003-0.52c-0.057-1.107-0.438-2.983-1.545-2.952
						c-1.439,0.041-1.483,1.803-1.537,2.322c-0.266,2.612-1.32,5.073-1.903,7.632c-0.581,2.563-0.625,5.459,0.923,7.579
						c0.485,0.664,1.114,1.233,1.457,1.98c0.394,0.858,0.361,1.843,0.322,2.785c-0.04,0.972-0.229,2.962-0.337,4.405
						C255.828,208.346,259.388,208.053,262.973,208.624z"/>
				</g>
				<g>
					<path fill="#EDC0AE" d="M255.051,186.239c0.008-0.134,0.008-0.315-0.003-0.52C255.054,185.922,255.058,186.102,255.051,186.239
						z"/>
				</g>
				<g>
					<path fill="#EDC0AE" d="M261.833,183.301c0.158,1.321,0.315,2.64,0.475,3.961C262.308,187.262,262.343,185.078,261.833,183.301
						z"/>
				</g>
			</g>
		</g>
		<path fill="#FFFFFF" d="M247.83,257.517c-5.913,3.509-13.784,0.244-17.247-4.863c2.861,7.464,11.182,10.431,18.1,6.325
			C249.619,258.424,248.769,256.96,247.83,257.517z"/>
	</g>
	<g>
		<path fill="#F2CF54" d="M226.385,13.235c5.692-4.244,13.823-6.368,24.389-6.368c10.567,0,18.72,2.027,24.462,6.079
			c5.739,4.053,8.612,10.038,8.612,17.948c0,5.211-1.279,9.821-3.835,13.824c-2.559,4.004-6.105,8.083-10.64,12.23l-21.856,19.397
			v8.395h-3.62V54.344c0-1.64,0.53-2.99,1.592-4.054l8.975-9.118c2.798-2.797,4.727-5.428,5.791-7.889
			c1.061-2.461,1.592-5.667,1.592-9.625c0-9.359-4.344-14.041-13.028-14.041c-4.15,0-7.19,1.111-9.119,3.33
			c-1.932,2.22-2.896,4.342-2.896,6.369c0,2.026,0.29,3.813,0.87,5.356h4.631c0.771,2.026,1.158,4.463,1.158,7.309
			c0,2.848-1.208,5.308-3.62,7.382c-2.413,2.076-5.597,3.112-9.553,3.112c-3.958,0-7.02-1.278-9.191-3.835
			c-2.172-2.556-3.257-5.766-3.257-9.626C217.844,22.741,220.689,17.483,226.385,13.235z M245.419,111.229
			c-3.62,0-6.322-1.038-8.107-3.111c-1.786-2.075-2.677-4.68-2.677-7.818c0-3.133,0.963-5.74,2.894-7.816
			c1.93-2.073,4.583-3.111,7.96-3.111c3.376,0,6.081,0.893,8.107,2.677c2.025,1.787,3.039,4.416,3.039,7.889
			c0,3.474-0.967,6.224-2.896,8.25C251.811,110.215,249.037,111.229,245.419,111.229z"/>
	</g>
	<g>
		<path fill="#8AA1D3" d="M340.219,44.74c7.026,1.023,14.278,5.271,21.748,12.742c7.472,7.473,11.806,14.671,13.001,21.597
			c1.191,6.925-1.009,13.188-6.603,18.781c-3.686,3.685-7.85,6.04-12.487,7.063c-4.641,1.023-10.032,1.399-16.171,1.125
			l-29.172-1.739l-5.935,5.936l-2.559-2.559l21.492-21.494c1.159-1.16,2.489-1.74,3.992-1.741l12.793-0.101
			c3.958,0,7.182-0.497,9.674-1.484c2.491-0.99,5.134-2.882,7.932-5.681c6.617-6.618,6.858-12.999,0.716-19.14
			c-2.935-2.935-5.868-4.298-8.801-4.094c-2.937,0.205-5.117,1.023-6.551,2.457c-1.434,1.433-2.492,2.9-3.174,4.401l3.276,3.275
			c-0.888,1.979-2.339,3.975-4.351,5.987c-2.014,2.014-4.606,2.9-7.779,2.661c-3.174-0.238-6.158-1.758-8.955-4.555
			c-2.798-2.799-4.062-5.868-3.787-9.211c0.271-3.343,1.774-6.38,4.503-9.11C327.458,45.422,333.188,43.716,340.219,44.74z
			 M284.386,127.491c-2.561-2.56-3.735-5.204-3.532-7.933c0.204-2.73,1.416-5.202,3.635-7.421c2.217-2.215,4.739-3.377,7.573-3.479
			c2.831-0.103,5.441,1.04,7.83,3.428s3.668,4.931,3.838,7.626c0.17,2.696-0.972,5.271-3.429,7.728
			c-2.456,2.457-5.085,3.718-7.881,3.786C289.621,131.293,286.944,130.05,284.386,127.491z"/>
	</g>
	<g>
		<path fill="#E190BD" d="M123.614,73.712c1.023-7.027,5.271-14.277,12.743-21.749c7.472-7.472,14.67-11.805,21.596-12.999
			c6.925-1.193,13.188,1.008,18.782,6.602c3.686,3.684,6.039,7.849,7.062,12.486c1.023,4.641,1.399,10.032,1.125,16.172
			l-1.739,29.17l5.937,5.936l-2.559,2.559l-21.494-21.494c-1.16-1.16-1.741-2.488-1.741-3.992l-0.102-12.793
			c0-3.957-0.496-7.181-1.483-9.672c-0.991-2.491-2.883-5.133-5.681-7.933c-6.618-6.618-12.999-6.857-19.139-0.716
			c-2.936,2.935-4.299,5.869-4.094,8.802c0.204,2.936,1.022,5.118,2.457,6.551c1.433,1.433,2.9,2.492,4.401,3.172l3.274-3.275
			c1.979,0.887,3.976,2.337,5.987,4.35c2.015,2.014,2.9,4.607,2.661,7.779c-0.238,3.174-1.757,6.158-4.554,8.955
			c-2.798,2.799-5.869,4.061-9.211,3.787c-3.344-0.272-6.38-1.773-9.111-4.503C124.297,86.473,122.59,80.744,123.614,73.712z
			 M206.366,129.546c-2.559,2.559-5.205,3.736-7.933,3.531c-2.73-0.204-5.202-1.416-7.42-3.635c-2.215-2.215-3.378-4.74-3.48-7.573
			c-0.102-2.831,1.04-5.441,3.43-7.83c2.387-2.388,4.929-3.667,7.624-3.838c2.696-0.17,5.271,0.972,7.728,3.428
			s3.718,5.084,3.788,7.881C210.168,124.31,208.924,126.987,206.366,129.546z"/>
	</g>
</g>
</svg>
